<?xml version="1.0" encoding="UTF-8"?>
<svg version="1.1" xmlns="http://www.w3.org/2000/svg" width="191" height="97">
<path d="M0 0 C3.93456904 1.93301127 7.63019383 4.36924576 10.46484375 7.74389648 C14.21678423 11.83478593 17.24229211 13.39543749 22.85168457 13.81689453 C26.57537866 13.96500442 30.27067839 13.9635397 34 13.9375 C39.28 13.958125 44.56 13.97875 50 14 C50.33 33.47 50.66 52.94 51 73 C54.63 74.98 58.26 76.96 62 79 C62 79.99 62 80.98 62 82 C59 83 59 83 57.125 82.25 C55.64817907 81.38128181 54.18310229 80.49241222 52.7277832 79.58813477 C50.03182342 77.94711245 50.03182342 77.94711245 47.12963867 76.75366211 C43.81659988 75.13801515 41.52655411 73.70296125 39 71 C37.62154802 65.46573126 37.95300335 60.21393527 38.3125 54.5625 C38.36773868 53.05291265 38.41791822 51.54313119 38.46289062 50.03320312 C38.58351944 46.35140517 38.77291045 42.67694502 39 39 C37.02 39 35.04 39 33 39 C33 48.9 33 58.8 33 69 C24.99989139 69 20.57927803 67.33758496 14 63 C10.24244322 59.17154592 7.20759685 55.15900727 6.6875 49.75 C7.14643644 44.24276275 9.49660977 41.46382733 13.375 37.6875 C16.3125622 35.79906716 18.54935001 35.3209907 22 35 C21.814375 33.906875 21.62875 32.81375 21.4375 31.6875 C21 28 21 28 22 25 C21.34773438 24.91363281 20.69546875 24.82726562 20.0234375 24.73828125 C19.14945313 24.59777344 18.27546875 24.45726563 17.375 24.3125 C16.51648438 24.18488281 15.65796875 24.05726562 14.7734375 23.92578125 C12 23 12 23 6 18 C6 36.15 6 54.3 6 73 C9.63 74.98 13.26 76.96 17 79 C17.66 80.32 18.32 81.64 19 83 C17.515 83.495 17.515 83.495 16 84 C13.1796875 82.5234375 13.1796875 82.5234375 9.875 80.375 C8.26238281 79.33472656 8.26238281 79.33472656 6.6171875 78.2734375 C6.04926483 77.89477539 5.48134216 77.51611328 4.89620972 77.12597656 C2.9885182 75.92723234 2.9885182 75.92723234 0.71536255 75.08496094 C-1.9034804 73.9661522 -3.86872069 72.89943919 -6 71 C-7.31344299 67.21487617 -7.16563977 63.57532932 -7.0625 59.6015625 C-7.06958984 58.49324066 -7.07667969 57.38491882 -7.08398438 56.24301147 C-7.09793689 52.70221851 -7.05052222 49.16540498 -7 45.625 C-6.99181457 42.09274649 -6.99599562 38.56066689 -7.00170898 35.02841187 C-7.0005935 32.83243502 -6.98887017 30.63643062 -6.96508789 28.44058228 C-6.91745529 23.185558 -6.92408308 18.15719327 -8 13 C-8.515625 12.505 -9.03125 12.01 -9.5625 11.5 C-11 10 -11 10 -11.375 6.5 C-11 3 -11 3 -10 1.0625 C-6.65338208 -0.71539077 -3.61458535 -0.76825682 0 0 Z M-3 6 C-3.67801034 8.90073181 -3.67801034 8.90073181 -4 12 C-2.06029948 14.38392117 -2.06029948 14.38392117 1.4765625 14.1953125 C2.85950968 14.18201493 4.24238654 14.15816232 5.625 14.125 C6.33140625 14.11597656 7.0378125 14.10695313 7.765625 14.09765625 C9.51056098 14.07407603 11.25532295 14.03820461 13 14 C6.74166393 8.41134797 6.74166393 8.41134797 -0.875 5.75 C-1.57625 5.8325 -2.2775 5.915 -3 6 Z M33 19 C33 24.61 33 30.22 33 36 C34.98 36 36.96 36 39 36 C39 30.39 39 24.78 39 19 C37.02 19 35.04 19 33 19 Z " fill="#060606" transform="translate(66,7)"/>
<path d="M0 0 C1.62440398 -0.0471168 3.25121089 0.0082179 4.87454224 0.08374023 C6.87454224 2.08374023 6.87454224 2.08374023 7.11746216 4.7824707 C7.11335327 5.91056152 7.10924438 7.03865234 7.10501099 8.20092773 C7.10307739 9.44874023 7.1011438 10.69655273 7.09915161 11.98217773 C7.08078247 13.95057617 7.08078247 13.95057617 7.06204224 15.95874023 C7.06139771 17.23233398 7.06075317 18.50592773 7.06008911 19.81811523 C7.02837586 26.71046131 6.73596624 33.49847162 6.09500122 40.35961914 C5.77158594 44.35592893 5.76477805 48.32719191 5.81204224 52.33374023 C5.81655396 53.09041992 5.82106567 53.84709961 5.82571411 54.62670898 C5.83722707 56.44575578 5.85514553 58.26476042 5.87454224 60.08374023 C9.50454224 61.73374023 13.13454224 63.38374023 16.87454224 65.08374023 C16.87454224 66.40374023 16.87454224 67.72374023 16.87454224 69.08374023 C9.07507546 68.11347164 1.4356248 65.85647022 -4.50631714 60.51733398 C-10.22347262 51.92435965 -7.77622425 36.90861811 -7.12545776 27.08374023 C-9.43545776 26.42374023 -11.74545776 25.76374023 -14.12545776 25.08374023 C-14.10974731 25.7344751 -14.09403687 26.38520996 -14.07785034 27.05566406 C-14.01551127 30.00243448 -13.97647093 32.94906621 -13.93795776 35.89624023 C-13.91282104 36.92040039 -13.88768433 37.94456055 -13.86178589 38.99975586 C-13.85211792 39.98266602 -13.84244995 40.96557617 -13.83248901 41.97827148 C-13.81677856 42.88424072 -13.80106812 43.79020996 -13.78488159 44.72363281 C-14.12545776 47.08374023 -14.12545776 47.08374023 -15.50631714 48.87792969 C-18.84496037 51.36429261 -23.17686463 50.5009279 -27.12545776 50.08374023 C-33.66718933 48.78707558 -38.01847352 45.24522043 -42.12545776 40.08374023 C-44.65549097 35.78603481 -44.8081706 31.7387346 -43.56295776 26.89624023 C-39.09935958 21.26822513 -30.93952287 19.13071567 -24.12545776 18.08374023 C-17.91369064 18.02758867 -12.7203444 18.28629692 -7.12545776 21.08374023 C-6.79545776 16.13374023 -6.46545776 11.18374023 -6.12545776 6.08374023 C-7.83733276 6.88811523 -9.54920776 7.69249023 -11.31295776 8.52124023 C-19.86420268 12.53929507 -28.44082914 13.65263329 -37.50045776 10.52124023 C-42.51825779 8.68246987 -43.66575855 5.58135608 -46.12545776 1.08374023 C-39.98737907 0.94029331 -33.84927695 0.79791009 -27.71115112 0.65649414 C-25.62488139 0.60828101 -23.53861825 0.5597819 -21.45236206 0.51098633 C-18.4462756 0.44072721 -15.44016663 0.37151102 -12.43405151 0.30249023 C-11.50773422 0.28061646 -10.58141693 0.25874268 -9.62702942 0.23620605 C-7.90188997 0.19697479 -6.17666067 0.16144369 -4.45135498 0.13037109 C-2.96723198 0.10061658 -1.48327048 0.0584389 0 0 Z " fill="#131313" transform="translate(166.12545776367188,19.916259765625)"/>
<path d="M0 0 C0.94082428 0.02009628 1.88164856 0.04019257 2.85098267 0.06089783 C3.86872772 0.08793289 4.88647278 0.11496796 5.93505859 0.14282227 C6.97544281 0.16643326 8.01582703 0.19004425 9.08773804 0.21437073 C12.41979253 0.29111427 15.75162084 0.37509267 19.08349609 0.45922852 C21.33869326 0.51243849 23.59390155 0.56517895 25.84912109 0.61743164 C31.38572023 0.74674384 36.92215056 0.88200084 42.45849609 1.02172852 C42.45103867 1.74978195 42.44358124 2.47783539 42.43589783 3.22795105 C42.37350164 10.09913449 42.35432455 16.96923645 42.38333797 23.84060192 C42.39673951 27.37334844 42.39360189 30.90444767 42.35229492 34.43701172 C42.30550118 38.50143262 42.331314 42.56260908 42.36083984 46.62719727 C42.33626205 47.89194382 42.31168427 49.15669037 42.28636169 50.45976257 C42.34239253 53.8806776 42.45398324 56.74951239 43.45849609 60.02172852 C45.66288015 61.99693414 47.56556733 62.98437993 50.33302307 64.008255 C52.93465852 65.24877351 53.45365554 66.37983369 54.45849609 69.02172852 C51.45849609 70.02172852 51.45849609 70.02172852 47.86083984 68.28344727 C46.36677778 67.43547983 44.87886932 66.57661379 43.39599609 65.70922852 C41.77773798 64.78434423 40.15924112 63.85987757 38.54052734 62.93579102 C37.70602051 62.45529297 36.87151367 61.97479492 36.01171875 61.47973633 C33.48981146 60.03961104 30.95326682 58.63051534 28.40771484 57.23266602 C27.59890869 56.78834229 26.79010254 56.34401855 25.95678711 55.88623047 C24.40452447 55.0346497 22.85165137 54.1841805 21.2980957 53.33496094 C14.00098174 49.30464102 14.00098174 49.30464102 11.45849609 47.02172852 C11.45849609 46.36172852 11.45849609 45.70172852 11.45849609 45.02172852 C12.11076172 45.1287207 12.76302734 45.23571289 13.43505859 45.34594727 C18.97945387 46.10646166 22.70401732 46.46872562 27.45849609 43.02172852 C29.87100144 39.46645748 29.92507749 35.62454841 30.14599609 31.45922852 C30.19304688 30.78698242 30.24009766 30.11473633 30.28857422 29.42211914 C30.47913498 26.27630465 30.46518153 24.04178483 29.45849609 21.02172852 C27.44341251 20.28849055 27.44341251 20.28849055 25.45849609 20.02172852 C25.51650391 21.1909082 25.57451172 22.36008789 25.63427734 23.56469727 C25.68119059 25.11283431 25.72668907 26.66101469 25.77099609 28.20922852 C25.81289063 28.9781543 25.85478516 29.74708008 25.89794922 30.53930664 C25.98996022 34.82701907 25.8514683 36.50645374 23.16162109 40.03344727 C20.27203451 42.15888017 18.43469991 42.74637791 14.84521484 42.51391602 C7.81937726 41.06505262 1.2881376 38.40332905 -3.54150391 33.02172852 C-2.55150391 32.36172852 -1.56150391 31.70172852 -0.54150391 31.02172852 C-1.20150391 30.03172852 -1.86150391 29.04172852 -2.54150391 28.02172852 C-3.11659287 22.8459278 -3.11659287 22.8459278 -2.54150391 20.02172852 C0.24283684 17.16411564 2.78842811 15.09017392 6.84130859 14.92407227 C7.74623047 14.93567383 8.65115234 14.94727539 9.58349609 14.95922852 C10.49357422 14.96825195 11.40365234 14.97727539 12.34130859 14.98657227 C13.38931641 15.00397461 13.38931641 15.00397461 14.45849609 15.02172852 C14.12849609 14.03172852 13.79849609 13.04172852 13.45849609 12.02172852 C12.66185547 11.93536133 11.86521484 11.84899414 11.04443359 11.76000977 C4.30734743 10.86664919 0.079771 10.12945341 -4.54150391 5.02172852 C-5.91650391 2.70922852 -5.91650391 2.70922852 -6.54150391 1.02172852 C-4.12358987 -0.1872285 -2.69653666 -0.06488992 0 0 Z M25.45849609 10.02172852 C25.41768826 12.02131215 25.41595253 14.02218106 25.45849609 16.02172852 C28.42849609 16.51672852 28.42849609 16.51672852 31.45849609 17.02172852 C31.45849609 14.38172852 31.45849609 11.74172852 31.45849609 9.02172852 C28.16919205 8.65487154 28.16919205 8.65487154 25.45849609 10.02172852 Z M13.45849609 20.02172852 C13.12849609 22.00172852 12.79849609 23.98172852 12.45849609 26.02172852 C12.12849609 24.37172852 11.79849609 22.72172852 11.45849609 21.02172852 C11.12849609 21.02172852 10.79849609 21.02172852 10.45849609 21.02172852 C10.12849609 24.98172852 9.79849609 28.94172852 9.45849609 33.02172852 C7.80849609 33.35172852 6.15849609 33.68172852 4.45849609 34.02172852 C6.28635882 36.2303009 6.28635882 36.2303009 8.89599609 36.45922852 C11.57324954 36.25619388 11.57324954 36.25619388 13.27099609 34.20922852 C15.0229303 29.50666828 14.69319688 24.98521561 14.45849609 20.02172852 C14.12849609 20.02172852 13.79849609 20.02172852 13.45849609 20.02172852 Z " fill="#101010" transform="translate(11.54150390625,19.978271484375)"/>
<path d="M0 0 C5.99643292 2.99307372 11.03367193 7.5620047 16 12 C15.01 12.495 15.01 12.495 14 13 C14 13.66 14 14.32 14 15 C11.36 15.33 8.72 15.66 6 16 C6 34.81 6 53.62 6 73 C9.63 74.98 13.26 76.96 17 79 C17.66 80.32 18.32 81.64 19 83 C17.515 83.495 17.515 83.495 16 84 C13.1796875 82.5234375 13.1796875 82.5234375 9.875 80.375 C8.26238281 79.33472656 8.26238281 79.33472656 6.6171875 78.2734375 C6.04926483 77.89477539 5.48134216 77.51611328 4.89620972 77.12597656 C2.9885182 75.92723234 2.9885182 75.92723234 0.71536255 75.08496094 C-1.9034804 73.9661522 -3.86872069 72.89943919 -6 71 C-7.31344299 67.21487617 -7.16563977 63.57532932 -7.0625 59.6015625 C-7.06958984 58.49324066 -7.07667969 57.38491882 -7.08398438 56.24301147 C-7.09793689 52.70221851 -7.05052222 49.16540498 -7 45.625 C-6.99181457 42.09274649 -6.99599562 38.56066689 -7.00170898 35.02841187 C-7.0005935 32.83243502 -6.98887017 30.63643062 -6.96508789 28.44058228 C-6.91745529 23.185558 -6.92408308 18.15719327 -8 13 C-8.515625 12.505 -9.03125 12.01 -9.5625 11.5 C-11 10 -11 10 -11.375 6.5 C-11 3 -11 3 -10 1.0625 C-6.65454221 -0.71477445 -3.61306944 -0.77288268 0 0 Z M-3 6 C-3.67801034 8.90073181 -3.67801034 8.90073181 -4 12 C-2.06029948 14.38392117 -2.06029948 14.38392117 1.4765625 14.1953125 C2.85950968 14.18201493 4.24238654 14.15816232 5.625 14.125 C6.33140625 14.11597656 7.0378125 14.10695313 7.765625 14.09765625 C9.51056098 14.07407603 11.25532295 14.03820461 13 14 C6.74166393 8.41134797 6.74166393 8.41134797 -0.875 5.75 C-1.57625 5.8325 -2.2775 5.915 -3 6 Z " fill="#0B0B0B" transform="translate(66,7)"/>
<path d="M0 0 C1.38120529 0.03014442 1.38120529 0.03014442 2.79031372 0.06089783 C3.786185 0.08793289 4.78205627 0.11496796 5.80810547 0.14282227 C7.33538773 0.17823875 7.33538773 0.17823875 8.89352417 0.21437073 C12.15425202 0.29110973 15.41474846 0.37509007 18.67529297 0.45922852 C20.88231279 0.51243895 23.089344 0.5651794 25.29638672 0.61743164 C30.71449949 0.74673867 36.1324396 0.88199574 41.55029297 1.02172852 C41.55029297 1.35172852 41.55029297 1.68172852 41.55029297 2.02172852 C26.70029297 2.02172852 11.85029297 2.02172852 -3.44970703 2.02172852 C-3.77970703 3.01172852 -4.10970703 4.00172852 -4.44970703 5.02172852 C-5.10970703 3.70172852 -5.76970703 2.38172852 -6.44970703 1.02172852 C-4.0530002 -0.1766249 -2.6707228 -0.06567351 0 0 Z " fill="#171717" transform="translate(11.44970703125,19.978271484375)"/>
<path d="M0 0 C5.94 2.475 5.94 2.475 12 5 C12 6.32 12 7.64 12 9 C6.29370646 8.57202798 2.58921384 6.15654048 -2 3 C-1.34 2.67 -0.68 2.34 0 2 C0 1.34 0 0.68 0 0 Z " fill="#6C6C6C" transform="translate(171,80)"/>
<path d="M0 0 C2.8125 -0.25 2.8125 -0.25 6 0 C7.875 2 7.875 2 9 4 C8.34 4 7.68 4 7 4 C7 4.66 7 5.32 7 6 C4.36 6.33 1.72 6.66 -1 7 C-1 8.65 -1 10.3 -1 12 C-1.66 12 -2.32 12 -3 12 C-3 10.02 -3 8.04 -3 6 C-4.98 6 -6.96 6 -9 6 C-9 5.67 -9 5.34 -9 5 C-2.565 4.505 -2.565 4.505 4 4 C2.68 2.68 1.36 1.36 0 0 Z " fill="#1F1F1F" transform="translate(73,16)"/>
<path d="M0 0 C1.29858939 0.56775536 2.58870441 1.15491663 3.875 1.75 C4.59429687 2.07484375 5.31359375 2.3996875 6.0546875 2.734375 C8.3370674 4.21929686 9.00375898 5.50415408 10 8 C7 9 7 9 4.73828125 8.00390625 C3.93777344 7.52824219 3.13726562 7.05257812 2.3125 6.5625 C1.50425781 6.08941406 0.69601563 5.61632812 -0.13671875 5.12890625 C-0.75160156 4.75636719 -1.36648437 4.38382812 -2 4 C-1.34 2.68 -0.68 1.36 0 0 Z " fill="#6C6C6C" transform="translate(75,82)"/>
<path d="M0 0 C3.40312738 1.05875074 6.01353231 2.00902154 9 4 C9 4.99 9 5.98 9 7 C6 8 6 8 3.73828125 7.00390625 C2.93777344 6.52824219 2.13726562 6.05257812 1.3125 5.5625 C0.50425781 5.08941406 -0.30398437 4.61632812 -1.13671875 4.12890625 C-1.75160156 3.75636719 -2.36648437 3.38382812 -3 3 C-2.01 2.67 -1.02 2.34 0 2 C0 1.34 0 0.68 0 0 Z " fill="#646464" transform="translate(119,82)"/>
<path d="M0 0 C2.0625 0.4375 2.0625 0.4375 4 1 C3.34 3.31 2.68 5.62 2 8 C1.67 8 1.34 8 1 8 C0.67 9.98 0.34 11.96 0 14 C-0.33 14 -0.66 14 -1 14 C-1.02685938 11.85423363 -1.04633088 9.70837355 -1.0625 7.5625 C-1.07410156 6.36753906 -1.08570312 5.17257813 -1.09765625 3.94140625 C-1 1 -1 1 0 0 Z " fill="#898989" transform="translate(22,39)"/>
<path d="M0 0 C0.66 0.66 1.32 1.32 2 2 C0.1128125 1.9071875 0.1128125 1.9071875 -1.8125 1.8125 C-5.05651752 1.80718893 -5.05651752 1.80718893 -7.9375 3.1875 C-9.24912987 5.42498625 -9.65447612 7.44312331 -10 10 C-10.33 10 -10.66 10 -11 10 C-11.35706695 3.69181722 -11.35706695 3.69181722 -10 1.0625 C-6.64558048 -0.71953537 -3.76220155 -0.29858742 0 0 Z " fill="#888888" transform="translate(66,7)"/>
<path d="M0 0 C2.8125 -0.25 2.8125 -0.25 6 0 C7.875 2 7.875 2 9 4 C8.01 4.33 7.02 4.66 6 5 C2.8125 3.125 2.8125 3.125 0 1 C0 0.67 0 0.34 0 0 Z " fill="#5D5D5D" transform="translate(73,16)"/>
<path d="M0 0 C-1.5830577 4.2742558 -4.50568404 6.26531794 -8 9 C-6.68994234 5.06982701 -4.75047804 0 0 0 Z " fill="#4B4B4B" transform="translate(82,44)"/>
<path d="M0 0 C1.98 0.99 3.96 1.98 6 3 C5.67 3.66 5.34 4.32 5 5 C0.25 4.25 0.25 4.25 -2 2 C-1.34 2 -0.68 2 0 2 C0 1.34 0 0.68 0 0 Z " fill="#3C3C3C" transform="translate(171,80)"/>
<path d="M0 0 C0.91007813 0.00902344 1.82015625 0.01804687 2.7578125 0.02734375 C3.45648438 0.03894531 4.15515625 0.05054687 4.875 0.0625 C4.875 0.3925 4.875 0.7225 4.875 1.0625 C1.84765625 1.30664062 1.84765625 1.30664062 -1.1796875 1.55078125 C-3.52019216 1.93643036 -3.52019216 1.93643036 -5.125 5.0625 C-5.785 3.7425 -6.445 2.4225 -7.125 1.0625 C-4.60024538 -0.19987731 -2.81299534 -0.03606404 0 0 Z " fill="#CFCFCF" transform="translate(12.125,19.9375)"/>
</svg>
